<?xml version="1.0" encoding="UTF-8"?>
<svg xmlns="http://www.w3.org/2000/svg" xmlns:xlink="http://www.w3.org/1999/xlink" width="246px" height="32px" viewBox="0 0 248 32" version="1.1">
<defs>
<filter id="alpha" filterUnits="objectBoundingBox" x="0%" y="0%" width="100%" height="100%">
  <feColorMatrix type="matrix" in="SourceGraphic" values="0 0 0 0 1 0 0 0 0 1 0 0 0 0 1 0 0 0 1 0"/>
</filter>
<mask id="mask0">
  <g filter="url(#alpha)">
<rect x="0" y="0" width="248" height="32" style="fill:rgb(0%,0%,0%);fill-opacity:0.14902;stroke:none;"/>
  </g>
</mask>
<clipPath id="clip1">
  <rect x="0" y="0" width="248" height="32"/>
</clipPath>
<g id="surface5" clip-path="url(#clip1)">
<path style=" stroke:none;fill-rule:nonzero;fill:rgb(90.980392%,43.921569%,14.901961%);fill-opacity:1;" d="M 63.976562 24.910156 C 64.917969 23.964844 65.859375 23.023438 66.796875 22.078125 C 66.941406 21.9375 67.0625 21.8125 67.207031 21.667969 C 67.683594 21.1875 67.984375 20.460938 67.984375 19.78125 C 68.003906 19.410156 67.914062 19.070312 67.753906 18.75 C 67.648438 18.410156 67.472656 18.128906 67.207031 17.894531 C 66.691406 17.433594 66.035156 17.078125 65.324219 17.113281 C 64.617188 17.148438 63.960938 17.378906 63.445312 17.894531 C 62.503906 18.839844 61.566406 19.78125 60.625 20.726562 C 60.484375 20.867188 60.359375 20.992188 60.21875 21.136719 C 59.738281 21.617188 59.4375 22.347656 59.4375 23.023438 C 59.417969 23.394531 59.507812 23.734375 59.667969 24.054688 C 59.773438 24.394531 59.953125 24.679688 60.21875 24.910156 C 60.730469 25.371094 61.386719 25.726562 62.097656 25.691406 C 62.789062 25.65625 63.464844 25.425781 63.976562 24.910156 Z M 63.976562 24.910156 "/>
<path style=" stroke:none;fill-rule:nonzero;fill:rgb(90.980392%,43.921569%,14.901961%);fill-opacity:1;" d="M 15.253906 24.890625 C 18.890625 21.242188 22.507812 17.609375 26.144531 13.960938 C 26.660156 13.445312 27.171875 12.929688 27.6875 12.414062 C 28.679688 11.417969 28.75 9.617188 27.6875 8.640625 C 26.625 7.660156 24.972656 7.589844 23.925781 8.640625 C 20.292969 12.289062 16.671875 15.917969 13.035156 19.570312 C 12.523438 20.085938 12.007812 20.601562 11.492188 21.117188 C 10.5 22.113281 10.429688 23.914062 11.492188 24.890625 C 12.558594 25.871094 14.207031 25.941406 15.253906 24.890625 Z M 15.253906 24.890625 "/>
<path style=" stroke:none;fill-rule:nonzero;fill:rgb(90.980392%,43.921569%,14.901961%);fill-opacity:1;" d="M 26.605469 23.714844 C 27.121094 20.066406 27.632812 16.4375 28.167969 12.785156 C 28.238281 12.269531 28.308594 11.753906 28.378906 11.238281 C 28.484375 10.492188 28.503906 9.851562 28.113281 9.171875 C 27.792969 8.621094 27.15625 8.085938 26.515625 7.945312 C 25.257812 7.660156 23.449219 8.335938 23.234375 9.8125 C 22.722656 13.464844 22.207031 17.09375 21.675781 20.742188 C 21.605469 21.261719 21.53125 21.777344 21.460938 22.292969 C 21.355469 23.039062 21.335938 23.679688 21.726562 24.355469 C 22.046875 24.910156 22.6875 25.441406 23.324219 25.585938 C 24.582031 25.871094 26.394531 25.195312 26.605469 23.714844 Z M 26.605469 23.714844 "/>
<path style=" stroke:none;fill-rule:nonzero;fill:rgb(90.980392%,43.921569%,14.901961%);fill-opacity:1;" d="M 25.914062 24.890625 C 29.550781 21.242188 33.167969 17.609375 36.804688 13.960938 C 37.320312 13.445312 37.832031 12.929688 38.347656 12.414062 C 39.339844 11.417969 39.410156 9.617188 38.347656 8.640625 C 37.285156 7.660156 35.632812 7.589844 34.585938 8.640625 C 30.953125 12.289062 27.332031 15.917969 23.695312 19.570312 C 23.183594 20.085938 22.667969 20.601562 22.152344 21.117188 C 21.160156 22.113281 21.089844 23.914062 22.152344 24.890625 C 23.21875 25.871094 24.867188 25.941406 25.914062 24.890625 Z M 25.914062 24.890625 "/>
<path style=" stroke:none;fill-rule:nonzero;fill:rgb(90.980392%,43.921569%,14.901961%);fill-opacity:1;" d="M 36.128906 24.890625 C 39.765625 21.242188 43.386719 17.609375 47.019531 13.960938 C 47.535156 13.445312 48.050781 12.929688 48.5625 12.414062 C 49.558594 11.417969 49.628906 9.617188 48.5625 8.640625 C 47.5 7.660156 45.851562 7.589844 44.804688 8.640625 C 41.167969 12.289062 37.550781 15.917969 33.914062 19.570312 C 33.398438 20.085938 32.882812 20.601562 32.371094 21.117188 C 31.375 22.113281 31.304688 23.914062 32.371094 24.890625 C 33.433594 25.871094 35.082031 25.941406 36.128906 24.890625 Z M 36.128906 24.890625 "/>
<path style=" stroke:none;fill-rule:nonzero;fill:rgb(90.980392%,43.921569%,14.901961%);fill-opacity:1;" d="M 46.703125 13.195312 C 52.148438 13.195312 57.574219 13.195312 63.019531 13.195312 C 63.78125 13.195312 64.5625 13.195312 65.324219 13.195312 C 66.761719 13.195312 67.984375 11.96875 67.984375 10.527344 C 67.984375 9.085938 66.761719 7.855469 65.324219 7.855469 C 59.878906 7.855469 54.453125 7.855469 49.007812 7.855469 C 48.246094 7.855469 47.464844 7.855469 46.703125 7.855469 C 45.265625 7.855469 44.042969 9.085938 44.042969 10.527344 C 44.042969 11.96875 45.246094 13.195312 46.703125 13.195312 Z M 46.703125 13.195312 "/>
<path style=" stroke:none;fill-rule:nonzero;fill:rgb(90.980392%,43.921569%,14.901961%);fill-opacity:1;" d="M 47.695312 24.890625 C 51.332031 21.242188 54.949219 17.609375 58.585938 13.960938 C 59.101562 13.445312 59.613281 12.929688 60.128906 12.414062 C 61.121094 11.417969 61.191406 9.617188 60.128906 8.640625 C 59.066406 7.660156 57.414062 7.589844 56.367188 8.640625 C 52.730469 12.289062 49.113281 15.917969 45.476562 19.570312 C 44.964844 20.085938 44.449219 20.601562 43.933594 21.117188 C 42.941406 22.113281 42.871094 23.914062 43.933594 24.890625 C 45 25.871094 46.648438 25.941406 47.695312 24.890625 Z M 47.695312 24.890625 "/>
<path style=" stroke:none;fill-rule:nonzero;fill:rgb(90.980392%,43.921569%,14.901961%);fill-opacity:1;" d="M 63.304688 16.167969 C 64.402344 15.066406 65.503906 13.960938 66.585938 12.875 C 66.746094 12.714844 66.90625 12.554688 67.046875 12.414062 C 67.523438 11.933594 67.828125 11.203125 67.828125 10.527344 C 67.84375 10.152344 67.753906 9.8125 67.597656 9.492188 C 67.488281 9.15625 67.3125 8.871094 67.046875 8.640625 C 66.53125 8.175781 65.875 7.820312 65.167969 7.855469 C 64.457031 7.890625 63.800781 8.125 63.285156 8.640625 C 62.1875 9.742188 61.085938 10.847656 60.003906 11.933594 C 59.84375 12.09375 59.683594 12.253906 59.542969 12.394531 C 59.066406 12.875 58.761719 13.605469 58.761719 14.28125 C 58.746094 14.65625 58.832031 14.996094 58.992188 15.316406 C 59.101562 15.652344 59.277344 15.9375 59.542969 16.167969 C 60.058594 16.632812 60.714844 16.988281 61.421875 16.953125 C 62.132812 16.933594 62.789062 16.683594 63.304688 16.167969 Z M 63.304688 16.167969 "/>
</g>
</defs>
<g id="surface1">
<use xlink:href="#surface5" mask="url(#mask0)"/>
<path style=" stroke:none;fill-rule:nonzero;fill:rgb(92.941176%,59.215686%,41.568627%);fill-opacity:1;" d="M 62.417969 22.0625 C 63.355469 21.117188 64.296875 20.175781 65.238281 19.230469 C 65.378906 19.089844 65.503906 18.964844 65.644531 18.820312 C 66.125 18.339844 66.425781 17.609375 66.425781 16.933594 C 66.441406 16.5625 66.355469 16.222656 66.195312 15.902344 C 66.089844 15.5625 65.910156 15.277344 65.644531 15.046875 C 65.148438 14.585938 64.472656 14.230469 63.765625 14.265625 C 63.054688 14.300781 62.398438 14.53125 61.882812 15.046875 C 60.945312 15.992188 60.003906 16.933594 59.066406 17.878906 C 58.921875 18.019531 58.796875 18.144531 58.65625 18.289062 C 58.175781 18.769531 57.875 19.496094 57.875 20.175781 C 57.859375 20.546875 57.945312 20.886719 58.105469 21.207031 C 58.214844 21.542969 58.390625 21.828125 58.65625 22.0625 C 59.171875 22.523438 59.828125 22.878906 60.535156 22.84375 C 61.246094 22.808594 61.921875 22.578125 62.417969 22.0625 Z M 62.417969 22.0625 "/>
<path style=" stroke:none;fill-rule:nonzero;fill:rgb(90.980392%,43.921569%,14.901961%);fill-opacity:1;" d="M 13.710938 22.042969 C 17.347656 18.394531 20.964844 14.761719 24.601562 11.113281 C 25.117188 10.597656 25.628906 10.082031 26.144531 9.566406 C 27.136719 8.566406 27.207031 6.769531 26.144531 5.792969 C 25.082031 4.8125 23.429688 4.742188 22.382812 5.792969 C 18.75 9.441406 15.128906 13.070312 11.492188 16.722656 C 10.980469 17.21875 10.464844 17.734375 9.949219 18.269531 C 8.957031 19.265625 8.886719 21.0625 9.949219 22.042969 C 10.996094 23.023438 12.648438 23.09375 13.710938 22.042969 Z M 13.710938 22.042969 "/>
<path style=" stroke:none;fill-rule:nonzero;fill:rgb(90.196078%,56.862745%,37.647059%);fill-opacity:1;" d="M 25.042969 20.867188 C 25.558594 17.21875 26.074219 13.589844 26.605469 9.9375 C 26.675781 9.421875 26.746094 8.90625 26.820312 8.390625 C 26.925781 7.644531 26.941406 7 26.550781 6.324219 C 26.234375 5.773438 25.59375 5.238281 24.957031 5.097656 C 23.695312 4.8125 21.886719 5.488281 21.675781 6.964844 C 21.160156 10.617188 20.644531 14.246094 20.113281 17.894531 C 20.042969 18.410156 19.972656 18.929688 19.902344 19.445312 C 19.792969 20.191406 19.777344 20.832031 20.167969 21.507812 C 20.488281 22.0625 21.125 22.59375 21.761719 22.738281 C 23.039062 23.003906 24.832031 22.347656 25.042969 20.867188 Z M 25.042969 20.867188 "/>
<path style=" stroke:none;fill-rule:nonzero;fill:rgb(90.980392%,43.921569%,14.901961%);fill-opacity:1;" d="M 24.371094 22.042969 C 28.007812 18.394531 31.625 14.761719 35.261719 11.113281 C 35.777344 10.597656 36.289062 10.082031 36.804688 9.566406 C 37.796875 8.566406 37.867188 6.769531 36.804688 5.792969 C 35.742188 4.8125 34.089844 4.742188 33.042969 5.792969 C 29.40625 9.441406 25.789062 13.070312 22.152344 16.722656 C 21.640625 17.238281 21.125 17.753906 20.609375 18.269531 C 19.617188 19.265625 19.546875 21.0625 20.609375 22.042969 C 21.675781 23.023438 23.304688 23.09375 24.371094 22.042969 Z M 24.371094 22.042969 "/>
<path style=" stroke:none;fill-rule:nonzero;fill:rgb(90.980392%,43.921569%,14.901961%);fill-opacity:1;" d="M 34.585938 22.042969 C 38.222656 18.394531 41.839844 14.761719 45.476562 11.113281 C 45.992188 10.597656 46.507812 10.082031 47.019531 9.566406 C 48.015625 8.566406 48.085938 6.769531 47.019531 5.792969 C 45.957031 4.8125 44.308594 4.742188 43.261719 5.792969 C 39.625 9.441406 36.007812 13.070312 32.371094 16.722656 C 31.855469 17.238281 31.339844 17.753906 30.828125 18.269531 C 29.832031 19.265625 29.761719 21.0625 30.828125 22.042969 C 31.890625 23.023438 33.539062 23.09375 34.585938 22.042969 Z M 34.585938 22.042969 "/>
<path style=" stroke:none;fill-rule:nonzero;fill:rgb(90.980392%,43.921569%,14.901961%);fill-opacity:1;" d="M 45.140625 10.332031 C 50.585938 10.332031 56.015625 10.332031 61.460938 10.332031 C 62.222656 10.332031 63.003906 10.332031 63.765625 10.332031 C 65.203125 10.332031 66.425781 9.101562 66.425781 7.660156 C 66.425781 6.21875 65.203125 4.992188 63.765625 4.992188 C 58.320312 4.992188 52.890625 4.992188 47.445312 4.992188 C 46.683594 4.992188 45.902344 4.992188 45.140625 4.992188 C 43.703125 4.992188 42.480469 6.21875 42.480469 7.660156 C 42.480469 9.121094 43.703125 10.332031 45.140625 10.332031 Z M 45.140625 10.332031 "/>
<path style=" stroke:none;fill-rule:nonzero;fill:rgb(90.980392%,43.921569%,14.901961%);fill-opacity:1;" d="M 46.152344 22.042969 C 49.789062 18.394531 53.40625 14.761719 57.042969 11.113281 C 57.558594 10.597656 58.070312 10.082031 58.585938 9.566406 C 59.578125 8.566406 59.648438 6.769531 58.585938 5.792969 C 57.519531 4.8125 55.871094 4.742188 54.824219 5.792969 C 51.1875 9.441406 47.570312 13.070312 43.933594 16.722656 C 43.421875 17.238281 42.90625 17.753906 42.390625 18.269531 C 41.398438 19.265625 41.328125 21.0625 42.390625 22.042969 C 43.457031 23.023438 45.105469 23.09375 46.152344 22.042969 Z M 46.152344 22.042969 "/>
<path style=" stroke:none;fill-rule:nonzero;fill:rgb(90.980392%,43.921569%,14.901961%);fill-opacity:1;" d="M 61.761719 13.320312 C 62.859375 12.21875 63.960938 11.113281 65.042969 10.027344 C 65.203125 9.867188 65.359375 9.707031 65.503906 9.566406 C 65.980469 9.085938 66.285156 8.355469 66.285156 7.679688 C 66.300781 7.304688 66.210938 6.964844 66.054688 6.644531 C 65.945312 6.308594 65.769531 6.023438 65.503906 5.792969 C 64.988281 5.328125 64.332031 4.972656 63.621094 5.007812 C 62.914062 5.042969 62.257812 5.273438 61.742188 5.792969 C 60.644531 6.894531 59.542969 8 58.460938 9.085938 C 58.300781 9.246094 58.140625 9.40625 58 9.546875 C 57.519531 10.027344 57.21875 10.757812 57.21875 11.433594 C 57.203125 11.808594 57.289062 12.144531 57.449219 12.464844 C 57.558594 12.804688 57.734375 13.089844 58 13.320312 C 58.515625 13.785156 59.171875 14.140625 59.878906 14.105469 C 60.570312 14.070312 61.246094 13.835938 61.761719 13.320312 Z M 61.761719 13.320312 "/>
<path style=" stroke:none;fill-rule:nonzero;fill:rgb(14.509804%,14.509804%,14.509804%);fill-opacity:1;" d="M 82.9375 9.957031 L 82.9375 14.691406 C 82.9375 15.351562 83.277344 15.671875 83.96875 15.671875 L 87.410156 15.671875 L 87.410156 16.882812 L 83.859375 16.882812 C 82.210938 16.882812 81.378906 16.203125 81.378906 14.851562 L 81.378906 9.957031 Z M 83.152344 18.375 L 92.320312 18.375 C 93.011719 18.375 93.351562 18.714844 93.351562 19.410156 L 93.351562 23.34375 L 91.789062 23.34375 L 91.789062 19.605469 L 83.152344 19.605469 Z M 88.863281 9.726562 L 90.371094 9.726562 L 90.371094 17.34375 L 88.863281 17.34375 L 88.863281 13.410156 L 85.617188 13.410156 L 85.617188 12.144531 L 88.863281 12.144531 Z M 91.824219 9.726562 L 93.351562 9.726562 L 93.351562 17.34375 L 91.824219 17.34375 Z M 91.824219 9.726562 "/>
<path style=" stroke:none;fill-rule:nonzero;fill:rgb(14.509804%,14.509804%,14.509804%);fill-opacity:1;" d="M 109.722656 21.8125 L 96.082031 21.8125 L 96.082031 20.511719 L 109.722656 20.511719 Z M 103.691406 10.652344 C 103.691406 12.609375 104.257812 14.121094 105.375 15.171875 C 106.441406 16.152344 107.59375 16.683594 108.816406 16.757812 L 108.816406 17.984375 C 107.238281 17.929688 105.785156 17.378906 104.4375 16.3125 C 103.78125 15.796875 103.28125 15.171875 102.910156 14.425781 C 102.519531 15.171875 102.007812 15.796875 101.367188 16.3125 C 100.019531 17.363281 98.566406 17.929688 96.988281 17.984375 L 96.988281 16.757812 C 98.210938 16.683594 99.34375 16.152344 100.425781 15.171875 C 101.5625 14.121094 102.113281 12.625 102.113281 10.652344 L 102.113281 9.921875 L 103.691406 9.921875 Z M 103.691406 10.652344 "/>
<path style=" stroke:none;fill-rule:nonzero;fill:rgb(14.509804%,14.509804%,14.509804%);fill-opacity:1;" d="M 125.488281 21.8125 L 111.851562 21.8125 L 111.851562 20.511719 L 125.488281 20.511719 Z M 114.9375 11.292969 L 114.9375 13.390625 L 123.875 13.390625 L 123.875 14.585938 L 114.917969 14.585938 L 114.917969 15.882812 C 114.917969 16.523438 115.21875 16.84375 115.804688 16.84375 L 123.980469 16.84375 L 123.980469 18.054688 L 115.839844 18.054688 C 114.210938 18.054688 113.375 17.34375 113.375 15.902344 L 113.375 10.082031 L 123.875 10.082031 L 123.875 11.292969 Z M 114.9375 11.292969 "/>
<path style=" stroke:none;fill-rule:nonzero;fill:rgb(14.509804%,14.509804%,14.509804%);fill-opacity:1;" d="M 128.113281 15.082031 C 128.113281 13.410156 128.453125 12.109375 129.144531 11.167969 C 129.835938 10.222656 130.792969 9.761719 132.035156 9.761719 C 133.277344 9.761719 134.253906 10.222656 134.925781 11.167969 C 135.617188 12.109375 135.953125 13.410156 135.953125 15.082031 C 135.953125 16.757812 135.617188 18.054688 134.925781 19 C 134.234375 19.941406 133.277344 20.40625 132.035156 20.40625 C 130.792969 20.40625 129.816406 19.941406 129.144531 19 C 128.453125 18.039062 128.113281 16.738281 128.113281 15.082031 Z M 129.65625 15.101562 C 129.65625 16.417969 129.851562 17.414062 130.226562 18.128906 C 130.617188 18.820312 131.203125 19.175781 132.015625 19.175781 C 132.832031 19.175781 133.4375 18.820312 133.828125 18.128906 C 134.214844 17.433594 134.410156 16.417969 134.410156 15.101562 C 134.410156 13.785156 134.214844 12.769531 133.828125 12.058594 C 133.4375 11.34375 132.832031 10.988281 132.015625 10.988281 C 131.203125 10.988281 130.617188 11.34375 130.226562 12.058594 C 129.851562 12.769531 129.65625 13.785156 129.65625 15.101562 Z M 141.789062 15.582031 L 139.660156 15.582031 L 139.660156 23.21875 L 138.117188 23.21875 L 138.117188 9.726562 L 139.660156 9.726562 L 139.660156 14.300781 L 141.789062 14.300781 Z M 141.789062 15.582031 "/>
<path style=" stroke:none;fill-rule:nonzero;fill:rgb(14.509804%,14.509804%,14.509804%);fill-opacity:1;" d="M 143.6875 15.082031 C 143.6875 13.410156 144.023438 12.109375 144.71875 11.167969 C 145.410156 10.222656 146.367188 9.761719 147.609375 9.761719 C 148.851562 9.761719 149.824219 10.222656 150.5 11.167969 C 151.191406 12.109375 151.527344 13.410156 151.527344 15.082031 C 151.527344 16.757812 151.191406 18.054688 150.5 19 C 149.808594 19.941406 148.851562 20.40625 147.609375 20.40625 C 146.367188 20.40625 145.390625 19.941406 144.71875 19 C 144.023438 18.039062 143.6875 16.738281 143.6875 15.082031 Z M 145.230469 15.101562 C 145.230469 16.417969 145.425781 17.414062 145.800781 18.128906 C 146.1875 18.820312 146.773438 19.175781 147.589844 19.175781 C 148.40625 19.175781 149.007812 18.820312 149.398438 18.128906 C 149.789062 17.433594 149.984375 16.417969 149.984375 15.101562 C 149.984375 13.785156 149.789062 12.769531 149.398438 12.058594 C 149.007812 11.34375 148.40625 10.988281 147.589844 10.988281 C 146.773438 10.988281 146.1875 11.34375 145.800781 12.058594 C 145.425781 12.769531 145.230469 13.785156 145.230469 15.101562 Z M 153.941406 23.234375 L 153.941406 9.726562 L 155.5 9.726562 L 155.5 23.234375 Z M 153.941406 23.234375 "/>
<path style=" stroke:none;fill-rule:nonzero;fill:rgb(14.509804%,14.509804%,14.509804%);fill-opacity:1;" d="M 168.785156 19.570312 C 168.34375 20.085938 167.421875 20.351562 166 20.351562 L 161.425781 20.351562 C 159.792969 20.351562 158.960938 19.535156 158.960938 17.878906 L 158.960938 9.957031 L 165.628906 9.957031 L 165.628906 11.183594 L 160.484375 11.183594 L 160.484375 14.335938 L 165.628906 14.335938 L 165.628906 15.546875 L 160.484375 15.546875 L 160.484375 17.859375 C 160.484375 18.695312 160.839844 19.105469 161.566406 19.105469 L 165.734375 19.105469 C 167.757812 19.105469 168.769531 18.449219 168.769531 17.148438 L 168.769531 9.726562 L 170.328125 9.726562 L 170.328125 23.234375 L 168.769531 23.234375 L 168.769531 19.570312 Z M 168.785156 19.570312 "/>
<path style=" stroke:none;fill-rule:nonzero;fill:rgb(14.509804%,14.509804%,14.509804%);fill-opacity:1;" d="M 172.722656 15.082031 C 172.722656 13.410156 173.023438 12.109375 173.628906 11.167969 C 174.230469 10.222656 175.082031 9.761719 176.199219 9.761719 C 177.351562 9.761719 178.257812 10.222656 178.859375 11.167969 C 179.375 11.96875 179.675781 13.019531 179.765625 14.335938 L 181.398438 14.335938 L 181.398438 9.726562 L 182.90625 9.726562 L 182.90625 23.234375 L 181.398438 23.234375 L 181.398438 15.617188 L 179.765625 15.617188 C 179.710938 17.023438 179.410156 18.144531 178.859375 18.980469 C 178.238281 19.925781 177.351562 20.386719 176.199219 20.386719 C 175.082031 20.386719 174.230469 19.925781 173.628906 18.980469 C 173.023438 18.039062 172.722656 16.738281 172.722656 15.082031 Z M 174.230469 15.101562 C 174.230469 16.402344 174.390625 17.414062 174.710938 18.109375 C 175.03125 18.820312 175.527344 19.160156 176.21875 19.160156 C 176.925781 19.160156 177.460938 18.804688 177.796875 18.109375 C 178.132812 17.414062 178.3125 16.402344 178.3125 15.101562 C 178.3125 13.785156 178.132812 12.769531 177.796875 12.058594 C 177.460938 11.34375 176.925781 10.988281 176.21875 10.988281 C 175.542969 10.988281 175.03125 11.34375 174.710938 12.058594 C 174.390625 12.769531 174.230469 13.785156 174.230469 15.101562 Z M 184.324219 9.726562 L 185.847656 9.726562 L 185.847656 23.234375 L 184.324219 23.234375 Z M 184.324219 9.726562 "/>
<path style=" stroke:none;fill-rule:nonzero;fill:rgb(14.509804%,14.509804%,14.509804%);fill-opacity:1;" d="M 202.042969 21.8125 L 188.402344 21.8125 L 188.402344 20.511719 L 202.042969 20.511719 Z M 196.011719 10.652344 C 196.011719 12.609375 196.582031 14.121094 197.699219 15.171875 C 198.761719 16.152344 199.914062 16.683594 201.136719 16.757812 L 201.136719 17.984375 C 199.558594 17.929688 198.105469 17.378906 196.757812 16.3125 C 196.101562 15.796875 195.605469 15.171875 195.230469 14.425781 C 194.84375 15.171875 194.328125 15.796875 193.6875 16.3125 C 192.339844 17.363281 190.886719 17.929688 189.308594 17.984375 L 189.308594 16.757812 C 190.53125 16.683594 191.667969 16.152344 192.75 15.171875 C 193.882812 14.121094 194.433594 12.625 194.433594 10.652344 L 194.433594 9.921875 L 196.011719 9.921875 Z M 196.011719 10.652344 "/>
</g>
</svg>
